# Blender 3.6.23
# www.blender.org
mtllib player.mtl
o Cube.005
v 0.008844 -0.483940 -0.045175
v 0.022542 -0.223128 -0.466958
v 0.414216 -0.223128 -0.162485
v 0.245678 -0.223126 0.304108
v -0.250160 -0.223128 0.288000
v -0.388062 -0.223128 -0.188545
v 0.267847 0.198885 -0.378351
v 0.405749 0.198885 0.098195
v -0.004855 0.198885 0.376608
v -0.396529 0.198885 0.072135
v -0.227991 0.198883 -0.394459
v 0.008844 0.459697 -0.045175
v 0.247114 -0.413476 -0.114128
v 0.016895 -0.413476 -0.293092
v 0.255167 -0.260174 -0.362046
v -0.216399 -0.260173 -0.377363
v -0.224450 -0.413476 -0.129446
v 0.148051 -0.413475 0.160128
v 0.386323 -0.260173 0.091177
v -0.143394 -0.413476 0.150659
v -0.004186 -0.260173 0.355965
v -0.376690 -0.260174 0.066389
v -0.122314 -0.012122 -0.498397
v -0.363660 -0.012122 -0.334751
v 0.399355 -0.012122 -0.309965
v 0.169134 -0.012122 -0.488931
v 0.381346 -0.012122 0.244401
v 0.480413 -0.012122 -0.029857
v -0.151448 -0.012122 0.398581
v 0.140001 -0.012122 0.408047
v -0.462727 -0.012122 -0.060493
v -0.381668 -0.012122 0.219614
v 0.021873 0.235930 -0.446315
v 0.394377 0.235931 -0.156739
v 0.234086 0.235930 0.287013
v -0.237480 0.235931 0.271696
v -0.368637 0.235930 -0.181527
v 0.161081 0.389233 -0.241010
v -0.130364 0.389232 -0.250479
v 0.242137 0.389233 0.039095
v 0.000792 0.389233 0.202741
v -0.229427 0.389233 0.023777
v -0.539585 0.249047 0.063731
v -0.605782 0.038041 -0.068897
v -0.511692 0.286093 -0.189932
v -0.432388 0.120512 0.214722
v -0.498585 -0.090495 0.082094
v -0.575443 0.170674 0.206318
v -0.641640 -0.040333 0.073690
v -0.632802 0.281733 0.058254
v -0.698999 0.070727 -0.074374
v -0.668660 0.203360 0.200841
v -0.734857 -0.007646 0.068213
v 0.547876 0.248636 0.099085
v 0.622540 0.037630 -0.028967
v 0.536503 0.285683 -0.155850
v 0.432227 0.120661 0.242533
v 0.506892 -0.090345 0.114480
v 0.574354 0.170412 0.243423
v 0.649019 -0.040594 0.115370
v 0.636935 0.279812 0.099642
v 0.711600 0.068805 -0.028410
v 0.663414 0.201588 0.243980
v 0.738079 -0.009418 0.115927
v -0.019352 0.212816 0.413673
v -0.165945 0.001810 0.435646
v -0.251977 0.249863 0.308761
v 0.013869 0.265881 0.358750
v -0.218757 0.302927 0.253837
v -0.000629 0.279812 0.395815
v -0.233254 0.316859 0.290902
v 0.007434 0.213078 0.415248
v 0.152289 0.002071 0.446686
v 0.246374 0.250123 0.325652
v -0.021776 0.263573 0.358228
v 0.217165 0.300618 0.268633
v -0.009488 0.277765 0.396868
v 0.229453 0.314811 0.307272
v -0.014982 0.197315 0.380405
v -0.002693 0.211508 0.419045
v -0.019614 0.276196 0.400665
v -0.004730 0.198887 0.376500
v -0.019227 0.212818 0.413565
v -0.000503 0.279815 0.395706
v -0.014856 0.197317 0.380297
v -0.002568 0.211510 0.418936
v -0.019489 0.276198 0.400556
v -0.003330 0.197576 0.376949
v -0.017827 0.211508 0.414014
v 0.000896 0.278504 0.396156
v -0.013456 0.196006 0.380746
v -0.001168 0.210199 0.419385
v -0.018089 0.274887 0.401006
v 0.008491 0.497883 -0.034333
v 0.241784 0.427419 0.049938
v 0.000440 0.427419 0.213583
v -0.229779 0.427419 0.034620
vn 0.2033 -0.9435 -0.2616
vn -0.1711 -0.6617 -0.7300
vn 0.3116 -0.9435 0.1126
vn -0.0108 -0.9435 0.3311
vn -0.3182 -0.9435 0.0921
vn -0.2860 -0.3304 -0.8995
vn 0.7670 -0.3304 -0.5500
vn 0.7601 -0.3304 0.5595
vn -0.2973 -0.3304 0.8958
vn -0.9438 -0.3304 -0.0059
vn 0.0322 -0.1256 -0.9916
vn 0.9530 -0.1256 -0.2758
vn 0.5568 -0.1256 0.8211
vn -0.6089 -0.1256 0.7833
vn -0.9331 -0.1256 -0.3370
vn 0.2906 0.6617 -0.6912
vn 0.7471 0.6617 0.0628
vn 0.1711 0.6617 0.7300
vn -0.6414 0.6617 0.3883
vn -0.5675 0.6617 -0.4900
vn -0.3116 0.9435 -0.1126
vn -0.5710 0.7947 -0.2062
vn -0.7496 0.6617 0.0142
vn -0.3375 0.2542 -0.9064
vn -0.3726 0.7947 0.4793
vn -0.2181 0.6617 0.7173
vn -0.5981 -0.2240 0.7695
vn 0.3407 0.7947 0.5024
vn 0.6148 0.6617 0.4291
vn 0.3182 0.9435 -0.0921
vn 0.5831 0.7947 -0.1687
vn 0.5981 0.6617 -0.4521
vn 0.0108 0.9435 -0.3311
vn 0.0197 0.7947 -0.6067
vn -0.2452 0.6617 -0.7086
vn -0.7601 0.3304 -0.5595
vn -0.9238 0.1876 -0.3337
vn -0.0900 -0.4089 -0.9081
vn -0.7670 0.3304 0.5500
vn -0.6028 0.1876 0.7755
vn -0.8915 -0.4089 -0.1950
vn 0.9023 -0.4089 -0.1367
vn 0.5512 0.1876 0.8130
vn 0.7297 0.3304 0.5986
vn 0.1488 -0.4089 -0.9004
vn 0.9435 0.1876 -0.2730
vn 0.7948 0.3304 -0.5090
vn 0.2973 0.3304 -0.8958
vn 0.0319 0.1876 -0.9817
vn -0.2385 0.3304 -0.9132
vn -0.9530 0.1256 0.2758
vn -0.9435 -0.1876 0.2730
vn -0.7948 -0.3304 0.5090
vn -0.0322 0.1256 0.9916
vn -0.0319 -0.1876 0.9817
vn 0.2385 -0.3304 0.9132
vn 0.9331 0.1256 0.3370
vn 0.9238 -0.1876 0.3337
vn 0.9422 -0.3304 0.0554
vn 0.6089 0.1256 -0.7833
vn 0.6028 -0.1876 -0.7755
vn 0.3438 -0.3304 -0.8790
vn -0.5568 0.1256 -0.8211
vn -0.5512 -0.1876 -0.8130
vn -0.7297 -0.3304 -0.5986
vn -0.7471 -0.6617 -0.0628
vn -0.5831 -0.7947 0.1687
vn -0.5981 -0.6617 0.4521
vn -0.2906 -0.6617 0.6912
vn -0.0197 -0.7947 0.6067
vn 0.2452 -0.6617 0.7086
vn 0.5675 -0.6617 0.4900
vn 0.5710 -0.7947 0.2062
vn 0.7496 -0.6617 -0.0142
vn -0.6148 -0.6617 -0.4291
vn -0.3407 -0.7947 -0.5024
vn -0.1859 -0.9435 -0.2742
vn 0.6414 -0.6617 -0.3883
vn 0.3726 -0.7947 -0.4793
vn 0.2181 -0.6617 -0.7173
vn -0.9422 0.3304 -0.0554
vn 0.3170 0.9328 0.1711
vn 0.2152 0.4704 -0.8558
vn -0.2152 -0.4704 0.8558
vn 0.2567 0.8183 0.5143
vn -0.2567 -0.8183 -0.5143
vn 0.9438 0.3304 0.0059
vn -0.3275 0.9328 0.1502
vn -0.2895 0.8183 0.4966
vn 0.1592 -0.4704 0.8680
vn 0.2895 -0.8183 -0.4966
vn -0.1592 0.4704 -0.8680
vn -0.3438 0.3304 0.8790
vn 0.9021 -0.1437 0.4069
vn 0.7474 -0.4704 0.4692
vn 0.2607 0.9328 -0.2487
vn -0.9021 0.1437 -0.4069
vn 0.2860 0.3304 0.8995
vn -0.7763 -0.4704 0.4197
vn -0.2440 0.9328 -0.2650
vn -0.9266 -0.1437 0.3475
vn 0.9266 0.1437 -0.3475
vn 0.2861 0.3304 0.8995
vn 0.6550 0.0185 0.7554
vn 0.6541 0.0207 0.7561
vn -0.6080 -0.3609 -0.7072
vn -0.6079 -0.3594 -0.7080
vn -0.6079 -0.3595 -0.7080
vn 0.4046 -0.7931 0.4553
vn 0.4089 -0.7902 0.4565
vn -0.2454 0.9340 -0.2598
vn -0.2413 0.9355 -0.2582
vn 0.2475 -0.9320 0.2650
vn 0.2461 -0.9326 0.2639
vn -0.6845 -0.7290 0.0062
vn 0.0700 -0.2556 -0.9642
vn -0.0543 0.2713 0.9609
vn -0.2267 -0.5237 -0.8212
vn -0.6862 -0.5845 0.4329
vn -0.2033 0.9435 0.2616
vn 0.1859 0.9435 0.2742
vn 0.3956 0.2542 -0.8825
vn 0.5470 -0.2240 0.8066
vn 0.7474 -0.4704 0.4691
vn 0.6524 0.0187 0.7577
vn 0.6550 0.0184 0.7554
vn -0.6078 -0.3594 -0.7081
vn -0.6083 -0.3592 -0.7078
vn 0.4089 -0.7902 0.4564
vn 0.4074 -0.7923 0.4541
vn -0.2432 0.9334 -0.2640
vn -0.2432 0.9333 -0.2641
vn -0.2473 0.9317 -0.2660
vn 0.2446 -0.9329 0.2644
vn 0.2448 -0.9328 0.2644
vn 0.2467 -0.9322 0.2648
vn -0.6846 -0.7289 0.0062
vn 0.0705 -0.2555 -0.9642
vn -0.2268 -0.5236 -0.8212
vn -0.6864 -0.5843 0.4329
vt 0.181819 0.000000
vt 0.227273 0.078731
vt 0.136365 0.078731
vt 0.272728 0.157461
vt 0.318182 0.078731
vt 0.363637 0.157461
vt 0.909091 0.000000
vt 0.954545 0.078731
vt 0.863636 0.078731
vt 0.727273 0.000000
vt 0.772727 0.078731
vt 0.681818 0.078731
vt 0.545455 0.000000
vt 0.590909 0.078731
vt 0.500000 0.078731
vt 0.318182 0.236191
vt 0.090910 0.157461
vt 0.181819 0.157461
vt 0.136365 0.236191
vt 0.818182 0.157461
vt 0.909091 0.157461
vt 0.863636 0.236191
vt 0.636364 0.157461
vt 0.727273 0.157461
vt 0.681818 0.236191
vt 0.454546 0.157461
vt 0.545455 0.157461
vt 0.500000 0.236191
vt 0.227273 0.236191
vt 0.045455 0.236191
vt 0.772727 0.236191
vt 0.590909 0.236191
vt 0.409092 0.236191
vt 0.181819 0.314921
vt 0.272728 0.314921
vt 0.227273 0.393651
vt 0.000000 0.314921
vt 0.090910 0.314921
vt 0.045455 0.393651
vt 0.727273 0.314921
vt 0.818182 0.314921
vt 0.772727 0.393651
vt 0.545455 0.314921
vt 0.636364 0.314921
vt 0.590909 0.393651
vt 0.363637 0.314921
vt 0.454546 0.314921
vt 0.409092 0.393651
vt 0.500000 0.393651
vt 0.454546 0.472382
vt 0.681818 0.393651
vt 0.863636 0.393651
vt 0.909091 0.314921
vt 0.136365 0.393651
vt 0.090910 0.472382
vt 0.318182 0.393651
vt 0.272728 0.472382
vt 0.954545 0.236191
vt 1.000000 0.157461
vt 0.409092 0.078731
vt 0.363637 0.000000
vt 0.636364 0.472382
vt 0.818182 0.472382
s 0
usemtl Material.001
f 1/1/1 14/2/1 13/3/1
f 2/4/2 14/5/2 16/6/2
f 1/7/3 13/8/3 18/9/3
f 1/10/4 18/11/4 20/12/4
f 1/13/5 20/14/5 17/15/5
f 2/4/6 16/6/6 23/16/6
f 3/17/7 15/18/7 25/19/7
f 4/20/8 19/21/8 27/22/8
f 5/23/9 21/24/9 29/25/9
f 6/26/10 22/27/10 31/28/10
f 2/4/11 23/16/11 26/29/11
f 3/17/12 25/19/12 28/30/12
f 4/20/13 27/22/13 30/31/13
f 5/23/14 29/25/14 32/32/14
f 6/26/15 31/28/15 24/33/15
f 7/34/16 33/35/16 38/36/16
f 8/37/17 34/38/17 40/39/17
f 9/40/18 35/41/18 41/42/18
f 10/43/19 36/44/19 42/45/19
f 11/46/20 37/47/20 39/48/20
f 39/48/21 42/49/21 12/50/21
f 39/48/22 37/47/22 42/49/22
f 37/47/23 10/43/23 42/49/23
f 12/50/24 97/49/24 94/50/24
f 42/45/25 36/44/25 41/51/25
f 36/44/26 9/40/26 41/51/26
f 41/51/27 97/45/27 42/45/27
f 41/42/28 35/41/28 40/52/28
f 35/41/29 8/53/29 40/52/29
f 40/39/30 38/54/30 12/55/30
f 40/39/31 34/38/31 38/54/31
f 34/38/32 7/34/32 38/54/32
f 38/36/33 39/56/33 12/57/33
f 38/36/34 33/35/34 39/56/34
f 33/35/35 11/46/35 39/56/35
f 24/33/36 37/47/36 11/46/36
f 24/33/37 31/28/37 37/47/37
f 37/47/38 44/28/38 45/47/38
f 32/32/39 36/44/39 10/43/39
f 32/32/40 29/25/40 36/44/40
f 36/44/41 66/25/41 67/44/41
f 35/41/42 73/31/42 30/31/42
f 30/31/43 27/22/43 35/41/43
f 27/22/44 8/53/44 35/41/44
f 28/30/45 56/38/45 55/30/45
f 28/30/46 25/19/46 34/38/46
f 25/19/47 7/34/47 34/38/47
f 26/29/48 33/35/48 7/34/48
f 26/29/49 23/16/49 33/35/49
f 23/16/50 11/46/50 33/35/50
f 31/28/51 32/32/51 10/43/51
f 31/28/52 22/27/52 32/32/52
f 22/27/53 5/23/53 32/32/53
f 29/25/54 30/31/54 9/40/54
f 29/25/55 21/24/55 30/31/55
f 21/24/56 4/20/56 30/31/56
f 27/22/57 28/58/57 8/53/57
f 27/22/58 19/21/58 28/58/58
f 19/21/59 3/59/59 28/58/59
f 25/19/60 26/29/60 7/34/60
f 25/19/61 15/18/61 26/29/61
f 15/18/62 2/4/62 26/29/62
f 23/16/63 24/33/63 11/46/63
f 23/16/64 16/6/64 24/33/64
f 16/6/65 6/26/65 24/33/65
f 17/15/66 22/27/66 6/26/66
f 17/15/67 20/14/67 22/27/67
f 20/14/68 5/23/68 22/27/68
f 20/12/69 21/24/69 5/23/69
f 20/12/70 18/11/70 21/24/70
f 18/11/71 4/20/71 21/24/71
f 18/9/72 19/21/72 4/20/72
f 18/9/73 13/8/73 19/21/73
f 13/8/74 3/59/74 19/21/74
f 16/6/75 17/60/75 6/26/75
f 16/6/76 14/5/76 17/60/76
f 14/5/77 1/61/77 17/60/77
f 13/3/78 15/18/78 3/17/78
f 13/3/79 14/2/79 15/18/79
f 14/2/80 2/4/80 15/18/80
f 44/28/81 43/43/81 45/47/81
f 37/47/82 43/43/82 10/43/82
f 44/28/83 50/43/83 43/43/83
f 47/28/84 48/43/84 49/28/84
f 10/43/59 47/28/59 31/28/59
f 43/43/85 46/43/85 10/43/85
f 31/28/86 49/28/86 44/28/86
f 50/43/81 53/28/81 52/43/81
f 48/43/84 53/28/84 49/28/84
f 44/28/86 53/28/86 51/28/86
f 43/43/85 52/43/85 48/43/85
f 55/30/87 56/38/87 54/37/87
f 8/37/88 56/38/88 34/38/88
f 54/37/89 57/37/89 59/37/89
f 58/58/90 59/53/90 57/53/90
f 28/58/10 57/53/10 8/53/10
f 28/30/91 60/30/91 58/30/91
f 59/53/90 64/58/90 63/53/90
f 61/37/87 64/30/87 62/30/87
f 55/30/91 64/30/91 60/30/91
f 54/37/92 62/30/92 55/30/92
f 54/37/89 63/37/89 61/37/89
f 66/25/93 65/40/93 67/44/93
f 9/40/94 70/40/94 65/40/94
f 29/25/95 65/40/95 66/25/95
f 69/44/96 70/40/96 68/40/96
f 67/44/93 70/40/93 71/44/93
f 9/40/62 69/44/62 68/40/62
f 36/44/97 71/44/97 69/44/97
f 73/31/98 74/41/98 72/40/98
f 9/40/6 76/41/6 35/41/6
f 30/31/99 72/40/99 9/40/99
f 76/41/100 77/40/100 78/41/100
f 9/40/101 77/40/101 75/40/101
f 35/41/102 78/41/102 74/41/102
f 74/41/98 77/40/98 72/40/98
f 77/40/103 80/40/103 72/40/103
f 9/40/100 80/40/100 72/40/100
f 70/40/104 83/40/105 84/40/104
f 81/40/106 86/40/107 80/40/108
f 9/40/109 83/40/110 65/40/110
f 9/40/111 85/40/112 79/40/112
f 79/40/113 86/40/114 80/40/114
f 82/40/115 89/40/115 83/40/115
f 86/40/116 93/40/116 92/40/116
f 83/40/117 90/40/117 84/40/117
f 82/40/118 91/40/118 85/40/118
f 86/40/119 91/40/119 92/40/119
f 97/45/120 96/51/120 94/62/120
f 96/42/121 95/52/121 94/63/121
f 12/55/122 95/39/122 40/39/122
f 41/42/123 95/52/123 96/42/123
f 12/50/24 42/49/24 97/49/24
f 41/51/27 96/51/27 97/45/27
f 37/47/38 31/28/38 44/28/38
f 36/44/41 29/25/41 66/25/41
f 35/41/42 74/41/42 73/31/42
f 28/30/45 34/38/45 56/38/45
f 37/47/82 45/47/82 43/43/82
f 44/28/83 51/28/83 50/43/83
f 47/28/84 46/43/84 48/43/84
f 10/43/59 46/43/59 47/28/59
f 43/43/85 48/43/85 46/43/85
f 31/28/86 47/28/86 49/28/86
f 50/43/81 51/28/81 53/28/81
f 48/43/84 52/43/84 53/28/84
f 44/28/86 49/28/86 53/28/86
f 43/43/85 50/43/85 52/43/85
f 8/37/88 54/37/88 56/38/88
f 54/37/89 8/37/89 57/37/89
f 58/58/90 60/58/90 59/53/90
f 28/58/10 58/58/10 57/53/10
f 28/30/91 55/30/91 60/30/91
f 59/53/90 60/58/90 64/58/90
f 61/37/87 63/37/87 64/30/87
f 55/30/91 62/30/91 64/30/91
f 54/37/92 61/37/92 62/30/92
f 54/37/89 59/37/89 63/37/89
f 9/40/94 68/40/94 70/40/94
f 29/25/124 9/40/124 65/40/124
f 69/44/96 71/44/96 70/40/96
f 67/44/93 65/40/93 70/40/93
f 9/40/62 36/44/62 69/44/62
f 36/44/97 67/44/97 71/44/97
f 9/40/6 75/40/6 76/41/6
f 30/31/99 73/31/99 72/40/99
f 76/41/100 75/40/100 77/40/100
f 9/40/101 72/40/101 77/40/101
f 35/41/102 76/41/102 78/41/102
f 74/41/98 78/41/98 77/40/98
f 77/40/98 81/40/98 80/40/98
f 9/40/100 79/40/100 80/40/100
f 70/40/125 65/40/126 83/40/126
f 81/40/127 87/40/127 86/40/128
f 9/40/129 82/40/129 83/40/130
f 9/40/131 82/40/132 85/40/133
f 79/40/134 85/40/135 86/40/136
f 82/40/137 88/40/137 89/40/137
f 86/40/138 87/40/138 93/40/138
f 83/40/117 89/40/117 90/40/117
f 82/40/139 88/40/139 91/40/139
f 86/40/140 85/40/140 91/40/140
f 12/55/122 94/55/122 95/39/122
f 41/42/123 40/52/123 95/52/123
