# Blender 3.6.23
# www.blender.org
mtllib arrow.mtl
o Cube.001
v 0.140464 0.297203 -0.510163
v 0.140464 -0.297203 -0.510163
v 0.379819 0.297203 -0.324571
v 0.379819 -0.297203 -0.324571
v -0.140464 0.297203 -0.510163
v -0.140464 -0.297203 -0.510163
v -0.379819 0.297203 -0.324571
v -0.379819 -0.297203 -0.324571
v 0.000000 -0.297203 -0.510163
v 0.000000 0.297203 0.351739
v 0.000000 -0.297203 0.351739
v 0.000000 0.297203 -0.510163
v -0.140464 -0.297203 -0.230203
v 0.140464 0.297203 -0.230203
v -0.140464 0.297203 -0.230203
v 0.140464 -0.297203 -0.230203
v 0.000000 -0.297203 -0.086267
v 0.000000 0.297203 -0.086267
vn -0.0000 1.0000 -0.0000
vn -0.8719 -0.0000 0.4897
vn -1.0000 -0.0000 -0.0000
vn -0.0000 -1.0000 -0.0000
vn -0.3668 -0.0000 -0.9303
vn -0.0000 -0.0000 -1.0000
vn 0.8719 -0.0000 0.4897
vn 1.0000 -0.0000 -0.0000
vn 0.3668 -0.0000 -0.9303
vt 0.750000 0.622954
vt 0.875000 0.750000
vt 0.750000 0.750000
vt 0.625000 0.875000
vt 0.375000 1.000000
vt 0.375000 0.875000
vt 0.625000 0.127046
vt 0.375000 0.250000
vt 0.375000 0.127046
vt 0.250000 0.622954
vt 0.375000 0.750000
vt 0.250000 0.750000
vt 0.625000 0.622954
vt 0.375000 0.622954
vt 0.625000 0.375000
vt 0.375000 0.500000
vt 0.375000 0.375000
vt 0.625000 0.250000
vt 0.125000 0.750000
vt 0.125000 0.622954
vt 0.625000 0.750000
vt 0.750000 0.500000
vt 0.625000 0.500000
vt 0.250000 0.500000
vt 0.125000 0.500000
vt 0.625000 0.000000
vt 0.375000 0.000000
vt 0.875000 0.622954
vt 0.625000 1.000000
vt 0.875000 0.500000
s 0
usemtl Material.001
f 18/1/1 7/2/1 10/3/1
f 10/4/2 8/5/2 11/6/2
f 15/7/3 6/8/3 13/9/3
f 17/10/4 4/11/4 11/12/4
f 14/13/5 4/11/5 16/14/5
f 12/15/6 2/16/6 9/17/6
f 5/18/6 9/17/6 6/8/6
f 17/10/4 8/19/4 13/20/4
f 3/21/7 11/6/7 4/11/7
f 18/1/1 3/21/1 14/13/1
f 12/22/1 14/13/1 1/23/1
f 9/24/4 13/20/4 6/25/4
f 1/23/8 16/14/8 2/16/8
f 9/24/4 16/14/4 17/10/4
f 7/26/9 13/9/9 8/27/9
f 12/22/1 15/28/1 18/1/1
f 18/1/1 15/28/1 7/2/1
f 10/4/2 7/29/2 8/5/2
f 15/7/3 5/18/3 6/8/3
f 17/10/4 16/14/4 4/11/4
f 14/13/5 3/21/5 4/11/5
f 12/15/6 1/23/6 2/16/6
f 5/18/6 12/15/6 9/17/6
f 17/10/4 11/12/4 8/19/4
f 3/21/7 10/4/7 11/6/7
f 18/1/1 10/3/1 3/21/1
f 12/22/1 18/1/1 14/13/1
f 9/24/4 17/10/4 13/20/4
f 1/23/8 14/13/8 16/14/8
f 9/24/4 2/16/4 16/14/4
f 7/26/9 15/7/9 13/9/9
f 12/22/1 5/30/1 15/28/1
